<?xml version="1.0" encoding="utf-8"?>
<!-- Generator: Adobe Illustrator 16.0.0, SVG Export Plug-In . SVG Version: 6.00 Build 0)  -->
<!DOCTYPE svg PUBLIC "-//W3C//DTD SVG 1.1//EN" "http://www.w3.org/Graphics/SVG/1.1/DTD/svg11.dtd">
<svg version="1.1" id="Calque_1" xmlns="http://www.w3.org/2000/svg" xmlns:xlink="http://www.w3.org/1999/xlink" x="0px" y="0px"
	 width="70.874px" height="28.983px" viewBox="0 0 70.874 28.983" enable-background="new 0 0 70.874 28.983" xml:space="preserve">
<path fill="#030303" d="M43.019,2.439c0,0,19-9.5,27.5,9c0,0,3.5,16-11.5,17.5c0,0-9.5,1-13.5-6.5c0,0,11-3.5,0-4c0,0-1-13,2.5-14
	C48.019,4.439,42.519,5.939,43.019,2.439z"/>
<path fill="#030303" d="M9.019,2.939c0,0-9.5,0.5-9,16.5c0,0,5,0.5,0,2.5c0,0,5.5,10.5,9.5-1C9.519,20.939,11.519,9.439,9.019,2.939
	z"/>
</svg>
