<?xml version="1.0" encoding="utf-8"?>
<!-- Generator: Adobe Illustrator 16.0.0, SVG Export Plug-In . SVG Version: 6.00 Build 0)  -->
<!DOCTYPE svg PUBLIC "-//W3C//DTD SVG 1.1//EN" "http://www.w3.org/Graphics/SVG/1.1/DTD/svg11.dtd">
<svg version="1.1" id="Calque_1" xmlns="http://www.w3.org/2000/svg" xmlns:xlink="http://www.w3.org/1999/xlink" x="0px" y="0px"
	 width="62.402px" height="33.714px" viewBox="0 0 62.402 33.714" enable-background="new 0 0 62.402 33.714" xml:space="preserve">
<path fill="#030303" d="M37.146,7.489L59.35,3.301c0,0,11.672,35.44-10.627,29.806c0,0-5.209-1.832-6.168-6.201
	c0,0,5.459-1.199-0.598-3.76c0,0-0.697-11.522-0.33-12.977C41.627,10.168,36.656,9.428,37.146,7.489z"/>
<path fill="#030303" d="M0.381,0l7.378,7.538c0,0,4.029,37.118-6.716,18.416c0,0,4.128-2.051-0.837-4.853
	C0.207,21.1-0.359,4.97,0.381,0z"/>
</svg>
