<?xml version="1.0" encoding="utf-8"?>
<!-- Generator: Adobe Illustrator 16.0.0, SVG Export Plug-In . SVG Version: 6.00 Build 0)  -->
<!DOCTYPE svg PUBLIC "-//W3C//DTD SVG 1.1//EN" "http://www.w3.org/Graphics/SVG/1.1/DTD/svg11.dtd">
<svg version="1.1" id="Calque_1" xmlns="http://www.w3.org/2000/svg" xmlns:xlink="http://www.w3.org/1999/xlink" x="0px" y="0px"
	 width="134.899px" height="118.791px" viewBox="0 0 134.899 118.791" enable-background="new 0 0 134.899 118.791"
	 xml:space="preserve">
<path fill="#B465A8" d="M11.08,47.791c0,0-22-8-4-21c3.009-7.823,7-18,25-18c0,0,3-10,21.055-3.572
	C66.08-6.209,81.648,3.98,95.735,8.871c11.345-4.08,19.155,9.513,25.187,19.398c12.158,3.521,6.19,13.393,7.158,22.521
	c0,0,15,2,0.506,19.027c7.494,24.973-5.704,32.527-20.506,48.973c0,0,12-30,6-41c0,0-17-9-18-21
	C49.08,25.791,6.08,64.791,11.08,47.791z"/>
</svg>
